HIERARCHY
ROOT hip
{
	OFFSET 0.000000 0.000000 0.000000 
	CHANNELS 6 Xposition Yposition Zposition Xrotation Zrotation Yrotation
	JOINT abdomen
	{
		OFFSET 0.000000 3.402643 0.000000 
		CHANNELS 3 Xrotation Zrotation Yrotation
		JOINT chest
		{
			OFFSET 0.000000 8.438565 -0.680529 
			CHANNELS 3 Xrotation Zrotation Yrotation
			JOINT neck
			{
				OFFSET 0.000000 10.207942 -0.272212 
				CHANNELS 3 Xrotation Zrotation Yrotation
				JOINT head
				{
					OFFSET 0.000000 3.130431 0.000000 
					CHANNELS 3 Xrotation Zrotation Yrotation
					End Site
					{
						OFFSET 0.000000 3.130435 0.000000 
					}
				}
			}
			JOINT lCollar
			{
				OFFSET 3.470700 6.669187 -0.816635 
				CHANNELS 3 Yrotation Zrotation Xrotation
				JOINT lShldr
				{
					OFFSET 3.198488 0.000000 0.000000 
					CHANNELS 3 Zrotation Yrotation Xrotation
					JOINT lForeArm
					{
						OFFSET 10.139888 0.000000 0.000000 
						CHANNELS 3 Yrotation Zrotation Xrotation
						JOINT lHand
						{
							OFFSET 8.370511 0.000000 0.000000 
							CHANNELS 3 Zrotation Yrotation Xrotation
							End Site
							{
								OFFSET 4.083176 0.000000 0.000000 
							}
						}
					}
				}
			}
			JOINT rCollar
			{
				OFFSET -3.470700 6.669187 -0.816635 
				CHANNELS 3 Yrotation Zrotation Xrotation
				JOINT rShldr
				{
					OFFSET -3.198488 0.000000 0.000000 
					CHANNELS 3 Zrotation Yrotation Xrotation
					JOINT rForeArm
					{
						OFFSET -10.139888 0.000000 0.000000 
						CHANNELS 3 Yrotation Zrotation Xrotation
						JOINT rHand
						{
							OFFSET -8.370511 0.000000 0.000000 
							CHANNELS 3 Zrotation Yrotation Xrotation
							End Site
							{
								OFFSET -4.083176 0.000000 0.000000 
							}
						}
					}
				}
			}
		}
	}
	JOINT lThigh
	{
		OFFSET 5.308129 -1.633274 1.361059 
		CHANNELS 3 Xrotation Zrotation Yrotation
		JOINT lShin
		{
			OFFSET -2.041588 -20.007561 0.000000 
			CHANNELS 3 Xrotation Zrotation Yrotation
			JOINT lFoot
			{
				OFFSET 0.000000 -19.190928 -1.224953 
				CHANNELS 3 Xrotation Yrotation Zrotation
				End Site
				{
					OFFSET 0.000000 -2.449906 4.627600 
				}
			}
		}
	}
	JOINT rThigh
	{
		OFFSET -5.308129 -1.633274 1.361059 
		CHANNELS 3 Xrotation Zrotation Yrotation
		JOINT rShin
		{
			OFFSET 2.041588 -20.007561 0.000000 
			CHANNELS 3 Xrotation Zrotation Yrotation
			JOINT rFoot
			{
				OFFSET 0.000000 -19.190928 -1.224953 
				CHANNELS 3 Xrotation Yrotation Zrotation
				End Site
				{
					OFFSET 0.000000 -2.449906 4.627600 
				}
			}
		}
	}
}
MOTION
Frames: 20
Frame Time: 0.033333
-3.996651 50.290314 4.845108 -1.022822 -2.915603 -3.119642 0.000000 0.000000 0.000000 3.105825 -0.019528 -1.044925 12.577315 -0.873182 -10.714162 20.415960 3.731528 -10.011420 -7.432545 -1.375419 3.341270 -56.023056 15.470675 2.699273 -40.821037 -3.391981 27.685181 -15.466318 1.093615 -3.158293 4.510705 6.426227 3.123585 50.004265 -27.253412 3.429298 43.126007 1.244668 27.792597 4.569301 3.410237 -3.131669 4.617546 11.482828 7.237806 0.770674 -3.925097 13.210698 -1.894486 0.122219 -5.626459 1.551284 -8.266168 -6.726735 8.422768 6.616240 5.527608 -2.632698 -0.053739 2.759732 
-3.988256 50.303669 4.613196 -0.737362 -3.927391 -5.472211 0.000000 0.000000 0.000000 3.873218 0.429671 -0.498033 12.865312 -0.461503 -10.088268 20.281269 3.175631 -9.810028 -6.555062 -1.438264 4.075343 -61.001869 15.780264 3.006957 -42.366070 -3.377269 28.776970 -15.659544 3.510925 -3.521257 4.698163 6.899184 3.819860 54.890827 -25.912575 4.061609 42.480518 2.340823 25.132828 5.736505 0.946355 -3.251503 4.705880 12.381505 7.953781 0.935502 -3.922737 15.121132 -1.908995 0.080875 -5.779733 -4.558715 -8.354570 -6.477628 18.289392 6.972055 10.224567 -1.395519 -0.012051 2.177773 
-4.027213 50.346329 4.436746 -0.217316 -5.029682 -7.941147 0.000000 0.000000 0.000000 4.451008 1.035154 -0.117168 13.118196 -0.077082 -9.375018 19.411213 2.812327 -9.523155 -5.600356 -0.772001 4.665208 -66.780716 16.210894 3.232248 -44.551685 -2.952538 30.613987 -14.438026 5.281041 -3.763179 5.389364 7.888904 4.245723 58.622265 -25.536591 4.073927 42.917053 2.881985 23.599197 7.324869 -2.224683 -3.404101 4.782321 13.353987 8.600883 1.063742 -3.680878 16.701740 -1.995366 0.108440 -6.085656 -9.413815 -8.124743 -6.545767 25.049883 7.430878 12.884353 2.095722 0.068733 1.756838 
-4.157644 50.374283 4.351512 0.510488 -6.033101 -9.870404 0.000000 0.000000 0.000000 4.824794 1.689453 0.019811 13.016662 0.260624 -8.720790 18.887453 3.007651 -9.211544 -5.150613 0.149889 5.067565 -71.850754 16.339174 4.952994 -47.143349 -2.881145 31.833736 -11.828926 6.339827 -3.839392 5.783240 9.126988 4.470458 61.093418 -25.625046 4.200433 44.393970 3.007284 23.376917 8.456234 -4.056444 -3.574773 4.625519 14.416834 9.216374 1.210012 -3.495532 18.360003 -2.009167 0.101795 -6.424924 -12.517809 -7.996673 -6.815662 28.428864 8.241570 15.073915 5.220923 0.194123 3.667179 
-4.356800 50.426117 4.379013 1.087342 -6.697055 -10.788116 0.000000 0.000000 0.000000 5.119359 2.226550 -0.195165 13.115016 0.772378 -8.643367 17.810713 3.086372 -9.026778 -5.497076 0.872149 5.396373 -75.669365 15.882739 8.223878 -49.271973 -3.226130 32.465885 -8.673309 5.066450 -3.691588 5.480354 10.055543 4.681489 62.505470 -25.738575 4.750705 45.601467 2.993273 24.352509 9.317090 -3.438471 -3.506236 4.569390 15.203658 9.547611 1.102837 -3.222260 19.343206 -1.881743 0.146128 -6.835433 -14.197722 -8.358356 -7.416524 29.401361 9.140307 16.066141 6.289170 0.314391 4.877410 
-4.649209 50.468369 4.493235 1.517337 -7.222019 -11.302536 0.000000 0.000000 0.000000 5.298905 2.685445 -0.498415 13.683158 1.466001 -9.026205 16.140697 2.767796 -9.063306 -6.085765 1.702625 5.646239 -77.958626 15.485198 10.530416 -51.134705 -3.640215 29.763412 -1.481578 9.440066 -3.556129 4.781623 10.662246 4.864719 63.739750 -25.772764 4.384263 45.790787 2.810713 24.213291 9.085980 -1.749711 -3.363149 4.712411 15.900064 9.864731 1.013709 -2.905835 19.465662 -1.943528 0.125574 -7.380787 -14.784242 -8.622495 -7.592028 28.171539 9.628613 14.401133 6.137677 0.280336 4.490748 
-5.028928 50.468937 4.661096 2.166277 -7.350790 -11.876571 0.000000 0.000000 0.000000 5.164535 3.046606 -0.762718 13.668053 1.514591 -8.938594 16.427395 4.174838 -9.154767 -6.742058 1.822258 5.571659 -77.636528 15.592518 11.249877 -51.978069 -3.493631 31.616833 5.159383 9.247530 -3.371565 4.042005 10.369893 4.807292 65.190170 -25.670010 3.258142 45.257744 2.593697 22.230402 9.352979 -0.762288 -3.252350 4.628112 16.434206 10.046548 0.927541 -2.665743 19.958773 -1.932074 0.187290 -8.038930 -14.954136 -8.891338 -7.259764 24.675734 9.501343 9.925381 6.142850 0.229221 3.798871 
-5.465286 50.391487 4.886799 2.853999 -7.005930 -12.625995 0.000000 0.000000 0.000000 4.838001 3.046387 -1.026536 13.593219 1.495337 -8.928833 16.953136 5.293777 -9.130175 -7.128306 2.091164 5.306158 -75.508141 15.362699 12.664028 -51.577106 -3.764779 33.534195 6.563157 5.494712 -3.401919 3.457574 9.844224 4.575100 65.885925 -25.837120 2.442793 44.729893 2.476852 20.475361 8.330704 -0.482700 -3.248420 4.557187 16.664032 10.176370 0.925199 -2.634021 20.876604 -2.055765 0.187195 -8.746145 -14.553904 -9.330768 -6.484518 19.237883 8.700743 4.718324 5.999571 0.182455 2.874636 
-5.969752 50.257206 5.188650 3.234576 -6.514749 -13.537185 0.000000 0.000000 0.000000 4.685161 2.880216 -1.212352 13.565452 1.860465 -9.213599 17.309412 5.026925 -8.901262 -7.280533 2.437103 5.170298 -72.022614 14.662316 14.932995 -51.029095 -4.672549 30.593246 4.359249 3.181299 -3.493757 3.548269 10.044565 4.409767 64.895111 -26.186188 2.389646 44.487644 2.510061 19.937407 6.958587 -1.275518 -3.351794 4.989863 16.855804 10.560957 0.947474 -2.817595 21.685638 -2.356239 0.174986 -9.506084 -13.211499 -9.852357 -5.744010 12.274123 7.743710 0.194368 6.336644 0.117843 2.236731 
-6.574898 50.100990 5.567997 3.505288 -5.961609 -14.710305 0.000000 0.000000 0.000000 4.573209 2.743576 -1.163114 13.573043 2.043334 -9.263713 17.393665 4.970091 -8.821746 -7.312054 2.525950 5.063507 -68.376213 13.540693 16.537188 -49.632317 -5.743817 25.470249 -1.800161 1.966471 -3.449808 3.821448 9.811119 4.286639 63.509197 -26.292084 2.892151 44.002449 2.585230 20.847624 5.155430 -1.862493 -3.411283 5.905830 16.940798 10.936968 0.886660 -2.826970 22.148829 -2.832317 0.253984 -10.531179 -10.347254 -10.043921 -5.064184 2.283546 6.616017 -3.625160 7.666534 0.121952 1.839958 
-7.285420 49.903767 5.995792 3.793976 -5.155410 -16.337898 0.000000 0.000000 0.000000 4.368515 2.558343 -0.801291 13.501587 1.871077 -9.028152 17.358686 5.142563 -8.912708 -7.090981 2.258770 4.841650 -65.063568 12.649293 16.614946 -47.838150 -6.492084 21.560984 -5.060046 2.571638 -3.448985 4.233224 9.249538 4.110193 61.883186 -26.227007 3.643563 43.581066 2.705803 21.665939 3.972432 -2.837755 -3.471741 6.979626 16.910364 11.342382 0.849273 -2.902653 22.913036 -3.430970 0.346747 -11.747359 -10.299824 -10.250628 -3.892987 -1.473478 5.055284 -3.656849 6.872033 0.078316 1.597062 
-8.142618 49.671280 6.466215 4.141122 -4.359128 -17.905807 0.000000 0.000000 0.000000 4.025442 2.353358 -0.664304 13.219868 1.697976 -8.919882 17.883289 5.239459 -8.884410 -6.854348 2.084520 4.493484 -62.467976 12.442950 15.249014 -45.839901 -6.637187 21.818773 -3.841497 3.421748 -3.501610 4.600687 8.884949 3.788615 60.090893 -25.937157 4.287663 43.235420 2.840587 22.099281 3.537549 -3.389729 -3.510424 8.003351 16.898123 11.716662 0.928241 -2.706076 24.313051 -3.892309 0.471119 -13.318323 -11.559744 -10.378147 -3.098119 -1.435862 4.335999 -2.959765 5.082592 0.016031 1.207045 
-9.235907 49.396389 6.985654 4.274530 -3.982294 -19.306461 0.000000 0.000000 0.000000 3.802419 2.392440 -0.615513 13.151555 1.554287 -8.675017 17.886517 5.510636 -8.819990 -6.780783 2.005087 4.299866 -60.298706 12.667032 12.923185 -43.893242 -6.300987 24.020044 -1.036892 4.496184 -3.518102 4.736686 8.748578 3.589752 58.490887 -25.648970 4.694284 43.418182 2.910398 22.060774 2.532528 -3.722094 -3.519919 9.332784 17.214149 12.188178 0.987597 -1.962956 26.262083 -3.836534 0.523402 -15.480144 -11.566859 -9.789985 -2.893916 -1.591333 4.334517 -4.532808 4.703705 0.043719 0.970993 
-10.562822 49.064663 7.571824 4.172815 -4.010900 -20.365061 0.000000 0.000000 0.000000 3.713643 2.568102 -0.811046 13.044457 1.699535 -8.577950 17.964605 5.359994 -8.552916 -7.171469 2.285280 4.248809 -58.936043 13.542088 9.485201 -42.299786 -5.412122 26.711407 1.601809 5.520630 -3.492130 4.663859 8.735205 3.492534 57.562000 -25.261314 4.514650 43.883652 2.810276 21.360714 1.515561 -3.850856 -3.523171 11.077446 17.893896 13.110237 1.334896 -0.964697 26.890247 -4.104267 0.644230 -18.029905 -10.698465 -8.814187 -3.024633 -1.783294 4.690892 -7.946001 6.399961 0.072983 1.659508 
-12.054035 49.002453 8.144222 3.700693 -5.803552 -21.865902 0.000000 0.000000 0.000000 4.540200 3.866732 -0.880857 13.667238 2.360295 -7.887403 18.158852 5.653127 -8.321495 -7.079264 3.381637 5.138576 -58.821411 13.316756 5.018322 -39.610844 -4.244063 28.074335 3.459528 6.218147 -3.447873 4.651376 9.898753 4.144299 56.478355 -23.805124 4.245386 44.031742 2.747880 20.515438 0.233840 -3.811203 -3.513675 14.222342 19.497984 15.320762 1.844238 0.752521 25.734779 -5.307423 0.943876 -20.923443 -9.042407 -6.288676 -3.005470 -1.784977 5.747679 -10.017641 7.478717 0.104652 1.958285 
-13.618847 49.040543 8.536224 4.375918 -7.776869 -24.785294 0.000000 0.000000 0.000000 4.891146 5.331990 -0.225452 14.137085 3.348271 -6.387696 18.321918 5.157716 -7.755472 -6.079278 4.913864 5.550295 -59.405876 13.123572 0.389227 -37.819778 -3.088411 26.614180 4.569125 6.252875 -3.427853 5.584873 11.987856 4.216002 54.804382 -22.871328 4.199500 45.128101 2.815568 19.253075 -1.279678 -3.660395 -3.505956 16.633598 21.157473 17.709482 1.683151 2.870241 27.592039 -1.113756 0.253812 -23.990629 -8.704590 -2.595725 -1.918986 -1.738378 6.396226 -11.223562 8.119544 0.129237 1.737273 
-15.122799 49.028614 8.941702 4.843553 -8.180308 -27.183794 0.000000 0.000000 0.000000 4.805782 5.634759 -0.087466 14.328968 3.704344 -5.381921 18.562202 4.692307 -6.917645 -5.673488 5.764701 5.483655 -60.905739 13.955243 -4.615535 -38.100792 -1.796189 23.473516 5.150946 6.329905 -3.398748 6.085859 12.500809 4.029738 54.206169 -21.717590 4.276111 46.537266 2.827690 18.841320 -2.307858 -3.930946 -3.499010 14.123508 21.713398 16.345840 6.958081 6.503493 38.052235 7.267678 -1.729184 -26.804327 -9.311148 -0.507763 -1.506935 0.615664 6.989444 -10.915971 6.640390 0.041678 1.075933 
-16.494612 49.039356 9.440122 4.644239 -8.590593 -27.978271 0.000000 0.000000 0.000000 5.040313 6.034785 -0.637408 14.808178 3.880930 -5.128555 18.260435 4.754842 -6.467558 -6.412923 6.308106 5.815896 -62.642773 14.402972 -8.760654 -38.983875 -0.892442 19.058903 5.168883 6.194647 -3.409859 5.452864 12.349309 4.300882 54.390549 -20.301985 4.264080 48.262199 2.633647 19.192926 -2.227105 -4.425374 -3.502246 3.474004 22.855907 10.517727 23.201258 10.174355 46.739613 11.602841 -2.641761 -25.418226 -8.572458 0.917128 -1.444780 2.527582 7.462239 -10.760444 3.974212 -0.033048 -0.073094 
-17.702999 49.106598 10.026222 3.809037 -9.066632 -28.514656 0.000000 0.000000 0.000000 5.722292 6.444710 -0.786178 15.525857 4.153273 -5.130589 18.093811 4.502551 -6.465202 -6.932986 6.670218 6.519496 -63.804008 13.533644 -10.540864 -39.946995 -0.959637 12.559776 4.674783 5.838403 -3.433793 4.990864 12.645141 4.944648 53.803375 -19.048296 4.627638 49.450397 2.626228 18.854528 -2.766496 -4.234928 -3.501702 -5.067761 22.522541 4.995021 36.732513 11.304069 42.279812 9.389871 -1.906438 -23.239990 -7.125465 2.176095 -1.153446 4.099312 7.208248 -10.728387 2.133745 -0.040144 -0.844074 
-18.711140 49.205608 10.655079 2.991939 -8.782482 -30.314804 0.000000 0.000000 0.000000 6.270632 6.425782 0.010797 16.001345 4.010950 -4.522503 18.415007 4.171574 -6.589585 -6.315517 6.484442 6.935743 -64.026001 11.945949 -8.905387 -40.906082 -1.865136 7.529780 5.796539 5.119517 -3.432514 5.593545 12.569837 5.375354 53.088726 -17.951317 5.326218 50.205742 2.891042 17.515568 -4.097571 -3.587036 -3.506602 -10.038293 20.359482 1.122720 43.322517 11.523896 31.160658 6.278113 -1.191995 -21.929100 -6.366383 2.743568 -0.856237 6.208570 6.685004 -9.451800 0.846126 -0.023888 -1.279525 
